{
  "asset": {
    "version": "2.0",
    "generator": "engine test fixture"
  },
  "scene": 0,
  "scenes": [
    {
      "nodes": [
        0
      ]
    }
  ],
  "nodes": [
    {
      "name": "Pedestal",
      "translation": [
        0.0,
        0.25,
        0.0
      ],
      "scale": [
        1.6,
        0.5,
        1.6
      ],
      "mesh": 0,
      "children": [
        1
      ]
    },
    {
      "name": "Topper",
      "translation": [
        0.0,
        1.6,
        0.0
      ],
      "rotation": [
        0.0,
        0.3826834323650898,
        0.0,
        0.9238795325112867
      ],
      "scale": [
        0.45,
        1.2,
        0.45
      ],
      "mesh": 1
    }
  ],
  "meshes": [
    {
      "name": "PedestalMesh",
      "primitives": [
        {
          "attributes": {
            "POSITION": 0,
            "NORMAL": 1,
            "TEXCOORD_0": 2
          },
          "indices": 3,
          "material": 0
        }
      ]
    },
    {
      "name": "TopperMesh",
      "primitives": [
        {
          "attributes": {
            "POSITION": 0,
            "NORMAL": 1,
            "TEXCOORD_0": 2
          },
          "indices": 3,
          "material": 1
        }
      ]
    }
  ],
  "materials": [
    {
      "name": "Stone",
      "pbrMetallicRoughness": {
        "baseColorFactor": [
          0.82,
          0.8,
          0.76,
          1.0
        ],
        "metallicFactor": 0.0,
        "roughnessFactor": 0.85,
        "baseColorTexture": {
          "index": 0
        }
      }
    },
    {
      "name": "Gold",
      "pbrMetallicRoughness": {
        "baseColorFactor": [
          1.0,
          0.78,
          0.34,
          1.0
        ],
        "metallicFactor": 0.95,
        "roughnessFactor": 0.22
      }
    }
  ],
  "textures": [
    {
      "source": 0
    }
  ],
  "images": [
    {
      "uri": "../textures/uv_grid.png"
    }
  ],
  "accessors": [
    {
      "bufferView": 0,
      "componentType": 5126,
      "count": 24,
      "type": "VEC3",
      "min": [
        -0.5,
        -0.5,
        -0.5
      ],
      "max": [
        0.5,
        0.5,
        0.5
      ]
    },
    {
      "bufferView": 1,
      "componentType": 5126,
      "count": 24,
      "type": "VEC3"
    },
    {
      "bufferView": 2,
      "componentType": 5126,
      "count": 24,
      "type": "VEC2"
    },
    {
      "bufferView": 3,
      "componentType": 5123,
      "count": 36,
      "type": "SCALAR"
    }
  ],
  "bufferViews": [
    {
      "buffer": 0,
      "byteOffset": 0,
      "byteLength": 288,
      "target": 34962
    },
    {
      "buffer": 0,
      "byteOffset": 288,
      "byteLength": 288,
      "target": 34962
    },
    {
      "buffer": 0,
      "byteOffset": 576,
      "byteLength": 192,
      "target": 34962
    },
    {
      "buffer": 0,
      "byteOffset": 768,
      "byteLength": 72,
      "target": 34963
    }
  ],
  "buffers": [
    {
      "byteLength": 840,
      "uri": "monument.bin"
    }
  ]
}